HIERARCHY
ROOT Hips
{
  OFFSET 5.80788e-005 67.184 3.4734
  CHANNELS 6 Xposition Yposition Zposition Zrotation Xrotation Yrotation
  JOINT Chest
  {
    OFFSET 0 8.7983 -4.7612
    CHANNELS 6 Xposition Yposition Zposition Zrotation Xrotation Yrotation
    JOINT Chest2
    {
      OFFSET 0 8.0291 0.4195
      CHANNELS 6 Xposition Yposition Zposition Zrotation Xrotation Yrotation
      JOINT Chest3
      {
        OFFSET 0 9.9351 -2.2114
        CHANNELS 6 Xposition Yposition Zposition Zrotation Xrotation Yrotation
        JOINT Neck
        {
          OFFSET 0 22.3885 -0.4656
          CHANNELS 6 Xposition Yposition Zposition Zrotation Xrotation Yrotation
          JOINT Head
          {
            OFFSET -0.0001 12.643 3.4389
            CHANNELS 6 Xposition Yposition Zposition Zrotation Xrotation Yrotation
            End Site
            {
              OFFSET 0.0001 17.6655 0.5274
            }
          }
        }
        JOINT LeftCollar
        {
          OFFSET 2.2603 21.606 7.4023
          CHANNELS 6 Xposition Yposition Zposition Zrotation Xrotation Yrotation
          JOINT LeftShoulder
          {
            OFFSET 13.5163 -1.1332 -5.0146
            CHANNELS 6 Xposition Yposition Zposition Zrotation Xrotation Yrotation
            JOINT LeftElbow
            {
              OFFSET -0.0995 -28.05 -0.2431
              CHANNELS 6 Xposition Yposition Zposition Zrotation Xrotation Yrotation
              JOINT LeftWrist
              {
                OFFSET 0.0679 -23.3996 -0.1402
                CHANNELS 6 Xposition Yposition Zposition Zrotation Xrotation Yrotation
                JOINT LeftFinger1
                {
                  OFFSET 0.7932 -9.069 2.5189
                  CHANNELS 6 Xposition Yposition Zposition Zrotation Xrotation Yrotation
                  JOINT LeftFinger11
                  {
                    OFFSET -0.8272 -3.3923 0.5977
                    CHANNELS 6 Xposition Yposition Zposition Zrotation Xrotation Yrotation
                    JOINT LeftFinger12
                    {
                      OFFSET -0.5649 -2.3158 0.4082
                      CHANNELS 6 Xposition Yposition Zposition Zrotation Xrotation Yrotation
                      End Site
                      {
                        OFFSET -0.4919 -1.6479 0.2673
                      }
                    }
                  }
                }
                JOINT LeftFinger2
                {
                  OFFSET 0.9159 -9.2044 0.2193
                  CHANNELS 6 Xposition Yposition Zposition Zrotation Xrotation Yrotation
                  JOINT LeftFinger21
                  {
                    OFFSET 0.0117 -4.1944 -0.0248
                    CHANNELS 6 Xposition Yposition Zposition Zrotation Xrotation Yrotation
                    JOINT LeftFinger22
                    {
                      OFFSET 0.0071 -2.3249 -0.0142
                      CHANNELS 6 Xposition Yposition Zposition Zrotation Xrotation Yrotation
                      End Site
                      {
                        OFFSET -0.1475 -2.0882 0.0028
                      }
                    }
                  }
                }
                JOINT LeftFinger3
                {
                  OFFSET 0.6113 -8.7231 -2.0637
                  CHANNELS 6 Xposition Yposition Zposition Zrotation Xrotation Yrotation
                  JOINT LeftFinger31
                  {
                    OFFSET -0.1927 -3.8059 -0.2383
                    CHANNELS 6 Xposition Yposition Zposition Zrotation Xrotation Yrotation
                    JOINT LeftFinger32
                    {
                      OFFSET -0.1091 -2.1688 -0.1362
                      CHANNELS 6 Xposition Yposition Zposition Zrotation Xrotation Yrotation
                      End Site
                      {
                        OFFSET -0.2358 -1.9176 -0.0906
                      }
                    }
                  }
                }
                JOINT LeftFinger4
                {
                  OFFSET -0.6151 -8.0947 -3.5641
                  CHANNELS 6 Xposition Yposition Zposition Zrotation Xrotation Yrotation
                  JOINT LeftFinger41
                  {
                    OFFSET -0.4882 -2.341 -0.6462
                    CHANNELS 6 Xposition Yposition Zposition Zrotation Xrotation Yrotation
                    JOINT LeftFinger42
                    {
                      OFFSET -0.3575 -1.7167 -0.4742
                      CHANNELS 6 Xposition Yposition Zposition Zrotation Xrotation Yrotation
                      End Site
                      {
                        OFFSET -0.4187 -1.5237 -0.3496
                      }
                    }
                  }
                }
                JOINT LeftFinger0
                {
                  OFFSET -1.42 -1.8761 1.4223
                  CHANNELS 6 Xposition Yposition Zposition Zrotation Xrotation Yrotation
                  JOINT LeftFinger01
                  {
                    OFFSET -1.1471 -3.4929 2.6334
                    CHANNELS 6 Xposition Yposition Zposition Zrotation Xrotation Yrotation
                    JOINT LeftFinger02
                    {
                      OFFSET -0.823 -2.3 1.6571
                      CHANNELS 6 Xposition Yposition Zposition Zrotation Xrotation Yrotation
                      End Site
                      {
                        OFFSET -0.5822 -1.6914 1.1582
                      }
                    }
                  }
                }
              }
            }
          }
        }
        JOINT RightCollar
        {
          OFFSET -2.2603 21.606 7.4023
          CHANNELS 6 Xposition Yposition Zposition Zrotation Xrotation Yrotation
          JOINT RightShoulder
          {
            OFFSET -13.5187 -1.1334 -5.0155
            CHANNELS 6 Xposition Yposition Zposition Zrotation Xrotation Yrotation
            JOINT RightElbow
            {
              OFFSET 0.0994 -28.0499 -0.2431
              CHANNELS 6 Xposition Yposition Zposition Zrotation Xrotation Yrotation
              JOINT RightWrist
              {
                OFFSET -0.0679 -23.3996 -0.1402
                CHANNELS 6 Xposition Yposition Zposition Zrotation Xrotation Yrotation
                JOINT RightFinger1
                {
                  OFFSET -0.7932 -9.0691 2.5189
                  CHANNELS 6 Xposition Yposition Zposition Zrotation Xrotation Yrotation
                  JOINT RightFinger11
                  {
                    OFFSET 0.8272 -3.3923 0.5977
                    CHANNELS 6 Xposition Yposition Zposition Zrotation Xrotation Yrotation
                    JOINT RightFinger12
                    {
                      OFFSET 0.565 -2.3158 0.4082
                      CHANNELS 6 Xposition Yposition Zposition Zrotation Xrotation Yrotation
                      End Site
                      {
                        OFFSET 0.4919 -1.6479 0.2673
                      }
                    }
                  }
                }
                JOINT RightFinger2
                {
                  OFFSET -0.916 -9.2044 0.2193
                  CHANNELS 6 Xposition Yposition Zposition Zrotation Xrotation Yrotation
                  JOINT RightFinger21
                  {
                    OFFSET -0.0117 -4.1944 -0.0248
                    CHANNELS 6 Xposition Yposition Zposition Zrotation Xrotation Yrotation
                    JOINT RightFinger22
                    {
                      OFFSET -0.0071 -2.3249 -0.0142
                      CHANNELS 6 Xposition Yposition Zposition Zrotation Xrotation Yrotation
                      End Site
                      {
                        OFFSET 0.1475 -2.0882 0.0028
                      }
                    }
                  }
                }
                JOINT RightFinger3
                {
                  OFFSET -0.6113 -8.7231 -2.0637
                  CHANNELS 6 Xposition Yposition Zposition Zrotation Xrotation Yrotation
                  JOINT RightFinger31
                  {
                    OFFSET 0.1927 -3.8059 -0.2383
                    CHANNELS 6 Xposition Yposition Zposition Zrotation Xrotation Yrotation
                    JOINT RightFinger32
                    {
                      OFFSET 0.1091 -2.1688 -0.1362
                      CHANNELS 6 Xposition Yposition Zposition Zrotation Xrotation Yrotation
                      End Site
                      {
                        OFFSET 0.2358 -1.9176 -0.0906
                      }
                    }
                  }
                }
                JOINT RightFinger4
                {
                  OFFSET 0.6151 -8.0947 -3.564
                  CHANNELS 6 Xposition Yposition Zposition Zrotation Xrotation Yrotation
                  JOINT RightFinger41
                  {
                    OFFSET 0.4882 -2.341 -0.6462
                    CHANNELS 6 Xposition Yposition Zposition Zrotation Xrotation Yrotation
                    JOINT RightFinger42
                    {
                      OFFSET 0.3574 -1.7166 -0.4742
                      CHANNELS 6 Xposition Yposition Zposition Zrotation Xrotation Yrotation
                      End Site
                      {
                        OFFSET 0.4187 -1.5237 -0.3496
                      }
                    }
                  }
                }
                JOINT RightFinger0
                {
                  OFFSET 1.4199 -1.8761 1.4221
                  CHANNELS 6 Xposition Yposition Zposition Zrotation Xrotation Yrotation
                  JOINT RightFinger01
                  {
                    OFFSET 1.1472 -3.4929 2.6336
                    CHANNELS 6 Xposition Yposition Zposition Zrotation Xrotation Yrotation
                    JOINT RightFinger02
                    {
                      OFFSET 0.8229 -2.3 1.6571
                      CHANNELS 6 Xposition Yposition Zposition Zrotation Xrotation Yrotation
                      End Site
                      {
                        OFFSET 0.5822 -1.6914 1.1582
                      }
                    }
                  }
                }
              }
            }
          }
        }
      }
    }
  }
  JOINT RightHip
  {
    OFFSET -9.412 3.9771 -0.7758
    CHANNELS 6 Xposition Yposition Zposition Zrotation Xrotation Yrotation
    JOINT RightKnee
    {
      OFFSET -0.7531 -40.938 0
      CHANNELS 6 Xposition Yposition Zposition Zrotation Xrotation Yrotation
      JOINT RightAnkle
      {
        OFFSET 0 -40.1986 0
        CHANNELS 6 Xposition Yposition Zposition Zrotation Xrotation Yrotation
        JOINT RightToe
        {
          OFFSET 0 -4.4182 9.239
          CHANNELS 6 Xposition Yposition Zposition Zrotation Xrotation Yrotation
          End Site
          {
            OFFSET 0 0 6.1981
          }
        }
      }
    }
  }
  JOINT LeftHip
  {
    OFFSET 9.4119 3.9773 -0.7758
    CHANNELS 6 Xposition Yposition Zposition Zrotation Xrotation Yrotation
    JOINT LeftKnee
    {
      OFFSET 0.7532 -40.9383 0
      CHANNELS 6 Xposition Yposition Zposition Zrotation Xrotation Yrotation
      JOINT LeftAnkle
      {
        OFFSET 0 -40.1986 0
        CHANNELS 6 Xposition Yposition Zposition Zrotation Xrotation Yrotation
        JOINT LeftToe
        {
          OFFSET 0 -4.4182 9.239
          CHANNELS 6 Xposition Yposition Zposition Zrotation Xrotation Yrotation
          End Site
          {
            OFFSET 0 0 6.1981
          }
        }
      }
    }
  }
}
MOTION
Frames:	4
Frame Time:	0.0333333
5.80788e-005 67.184 3.4734 0 0 -0 0 8.7983 -4.7612 0 0 -0 0 8.0291 0.4195 0 0 -0 0 9.9351 -2.2114 0 0 -0 0 22.3885 -0.4656 0 0 -0 -0.0001 12.643 3.4389 0 0 -0 2.2603 21.606 7.4023 0 0 -12.5014 13.5163 -1.1332 -5.0146 88.1196 14.2451 10.6914 -0.0995 -28.05 -0.2431 -0.00160068 -0.00239207 0.000740045 0.0679 -23.3996 -0.1402 -8.4365e-005 7.00714e-005 -9.52055e-007 0.7932 -9.069 2.5189 9.93923e-017 -1.98785e-016 -1.59028e-015 -0.8272 -3.3923 0.5977 9.93923e-017 -5.96354e-016 -1.59028e-015 -0.5649 -2.3158 0.4082 -9.93923e-017 -5.96354e-016 -1.59028e-015 0.9159 -9.2044 0.2193 9.93923e-017 -1.98785e-016 -1.59028e-015 0.0117 -4.1944 -0.0248 -0.0128176 0.00232552 8.52707e-005 0.0071 -2.3249 -0.0142 9.93923e-017 5.96354e-016 -0 0.6113 -8.7231 -2.0637 9.93923e-017 -1.98785e-016 -1.59028e-015 -0.1927 -3.8059 -0.2383 -0.0160551 0.00299681 0.000857156 -0.1091 -2.1688 -0.1362 -2.48481e-016 0 3.18055e-015 -0.6151 -8.0947 -3.5641 9.93923e-017 -1.98785e-016 -1.59028e-015 -0.4882 -2.341 -0.6462 -0.0125865 0.0031206 0.00282719 -0.3575 -1.7167 -0.4742 0 1.98785e-016 -0 -1.42 -1.8761 1.4223 9.93923e-017 -1.98785e-016 -1.59028e-015 -1.1471 -3.4929 2.6334 9.93923e-017 -5.96354e-016 -1.59028e-015 -0.823 -2.3 1.6571 -9.93923e-017 -5.96354e-016 -1.59028e-015 -2.2603 21.606 7.4023 -0.865644 0.16582 7.03859 -13.5187 -1.1334 -5.0155 -88.0329 10.2057 -10.5567 0.0994 -28.0499 -0.2431 0.0015593 -0.00248883 -0.000788628 -0.0679 -23.3996 -0.1402 7.87605e-005 4.10553e-005 1.24965e-005 -0.7932 -9.0691 2.5189 -3.97569e-016 -7.95139e-016 3.18055e-015 0.8272 -3.3923 0.5977 -1.98785e-016 -3.97569e-016 3.18055e-015 0.565 -2.3158 0.4082 -1.98785e-016 0 3.18055e-015 -0.916 -9.2044 0.2193 -3.97569e-016 -7.95139e-016 3.18055e-015 -0.0117 -4.1944 -0.0248 0.0129473 0.00231697 -8.70038e-005 -0.0071 -2.3249 -0.0142 9.93923e-017 -7.95139e-016 1.59028e-015 -0.6113 -8.7231 -2.0637 -3.97569e-016 -7.95139e-016 3.18055e-015 0.1927 -3.8059 -0.2383 0.0163314 0.00303369 -0.000872333 0.1091 -2.1688 -0.1362 3.97569e-016 7.95139e-016 -3.18055e-015 0.6151 -8.0947 -3.564 -3.97569e-016 -7.95139e-016 3.18055e-015 0.4882 -2.341 -0.6462 0.0145763 0.00367772 -0.00326275 0.3574 -1.7166 -0.4742 9.93923e-017 -3.97569e-016 -0 1.4199 -1.8761 1.4221 -3.97569e-016 -7.95139e-016 3.18055e-015 1.1472 -3.4929 2.6336 -1.98785e-016 -3.97569e-016 3.18055e-015 0.8229 -2.3 1.6571 -1.98785e-016 0 3.18055e-015 -9.412 3.9771 -0.7758 3.42485 1.36937 -0.0640303 -0.7531 -40.938 0 0.000136572 0.69354 0.00145564 1.77636e-015 -40.1986 -1.11022e-016 -3.42573 -2.06297 -0.0607933 8.88178e-016 -4.4182 9.239 -3.19502e-024 0 -1.48106e-024 9.4119 3.9773 -0.7758 -3.42498 1.36123 0.0639712 0.7532 -40.9383 2.22045e-016 -6.769e-005 0.712612 -0.0012277 8.88179e-016 -40.1986 0 3.42582 -2.07388 0.0612819 -8.88178e-016 -4.4182 9.239 2.55305e-023 0 -2.31416e-026 
-0.0020022 26.6449 8.71523 -3.23631e-008 -66.81 -6.46931e-008 -4.33681e-019 8.7983 -4.7612 -0.176347 3.95339 -0.229482 6.9389e-018 8.0291 0.4195 -0.337988 7.90747 -0.44834 2.77556e-017 9.9351 -2.2114 -0.337988 7.90747 -0.44834 5.55112e-017 22.3885 -0.4656 0.601985 0.461126 -0.071895 -0.0001 12.643 3.4389 -1.05836e-007 13.3889 -2.35528e-007 2.2603 21.606 7.4023 1.22498 -8.69826 -19.7417 13.5163 -1.1332 -5.0146 90.2471 -16.0312 24.4247 -0.0995 -28.05 -0.2431 -21.1217 -30.2198 12.6755 0.0679 -23.3996 -0.1402 -6.5106 -17.68 8.30801 0.7932 -9.069 2.5189 -3.18055e-015 0 -3.18055e-015 -0.8272 -3.3923 0.5977 -1.88496e-006 -8.99088e-006 -1.40168e-005 -0.5649 -2.3158 0.4082 7.59917e-006 -2.56626e-006 -1.64748e-006 0.9159 -9.2044 0.2193 -3.18055e-015 0 -3.18055e-015 0.0117 -4.1944 -0.0248 -0.012799 0.00232909 8.40789e-005 0.0071 -2.3249 -0.0142 2.46644e-007 -3.67689e-006 -5.09674e-006 0.6113 -8.7231 -2.0637 -3.18055e-015 0 -3.18055e-015 -0.1927 -3.8059 -0.2383 -0.0160455 0.00298832 0.000842104 -0.1091 -2.1688 -0.1362 6.41335e-006 4.39169e-007 -3.33963e-006 -0.6151 -8.0947 -3.5641 -3.18055e-015 0 -3.18055e-015 -0.4882 -2.341 -0.6462 -0.0125837 0.00311144 0.00281454 -0.3575 -1.7167 -0.4742 5.00027e-006 -9.466e-007 2.11116e-006 -1.42 -1.8761 1.4223 -3.18055e-015 0 -3.18055e-015 -1.1471 -3.4929 2.6334 -1.88496e-006 -8.99088e-006 -1.40168e-005 -0.823 -2.3 1.6571 7.59917e-006 -2.56626e-006 -1.64748e-006 -2.2603 21.606 7.4023 10.7257 -6.15157 21.7454 -13.5187 -1.1334 -5.0155 -53.4839 -0.620889 -1.05803 0.0994 -28.0499 -0.2431 16.6517 -9.47955 -23.6452 -0.0679 -23.3996 -0.1402 25.096 10.745 12.5758 -0.7932 -9.0691 2.5189 1.19767e-006 2.6425e-007 1.42039e-006 0.8272 -3.3923 0.5977 1.62012e-006 9.38819e-008 2.5106e-006 0.565 -2.3158 0.4082 -2.95268e-006 -1.51601e-005 1.03536e-005 -0.916 -9.2044 0.2193 1.19767e-006 2.6425e-007 1.42039e-006 -0.0117 -4.1944 -0.0248 0.0128946 0.00230391 -8.05937e-005 -0.0071 -2.3249 -0.0142 3.22264e-006 3.0019e-006 3.72543e-006 -0.6113 -8.7231 -2.0637 1.19767e-006 2.6425e-007 1.42039e-006 0.1927 -3.8059 -0.2383 0.0162699 0.00301257 -0.000862757 0.1091 -2.1688 -0.1362 1.19747e-006 1.01781e-008 1.42046e-006 0.6151 -8.0947 -3.564 1.19767e-006 2.6425e-007 1.42039e-006 0.4882 -2.341 -0.6462 0.0145837 0.0036578 -0.00324966 0.3574 -1.7166 -0.4742 -4.01688e-006 2.24956e-005 -2.01675e-006 1.4199 -1.8761 1.4221 1.19767e-006 2.6425e-007 1.42039e-006 1.1472 -3.4929 2.6336 1.62012e-006 9.38819e-008 2.5106e-006 0.8229 -2.3 1.6571 -2.95268e-006 -1.51601e-005 1.03536e-005 -9.412 3.9771 -0.7758 -3.76051 -15.9902 -5.65917 -0.7531 -40.938 -3.55271e-015 -4.91446 75.1866 5.08029 0 -40.1986 0 -5.51788 0.551934 -1.25277 -8.88178e-016 -4.4182 9.239 8.46445e-007 1.78928e-006 -1.05398e-007 9.4119 3.9773 -0.7758 3.82515 -22.078 6.37226 0.7532 -40.9383 0 22.4786 84.7667 -22.7918 0 -40.1986 0 5.66381 -0.324763 1.49873 -1.77636e-015 -4.4182 9.239 -2.9125e-008 4.30356e-007 -4.24108e-007 
-0.00435973 0.995209 6.47872 -180 -69.7344 180 0 8.7983 -4.7612 -0.261056 6.50815 -0.401148 6.9389e-018 8.0291 0.4195 -0.480598 13.0179 -0.77985 2.77556e-017 9.9351 -2.2114 -0.4806 13.018 -0.779853 -1.11022e-016 22.3885 -0.4656 0.994126 0.684966 -0.117396 -0.0001 12.643 3.4389 1.27775e-006 22.006 -1.2478e-006 2.2603 21.606 7.4023 0.772419 -14.0839 -24.6817 13.5163 -1.1332 -5.0146 90.8355 -35.763 32.7965 -0.0995 -28.05 -0.2431 -37.6685 -49.6257 17.5574 0.0679 -23.3996 -0.1402 -11.2545 -29.104 12.8703 0.7932 -9.069 2.5189 7.15625e-015 6.36111e-015 4.77083e-015 -0.8272 -3.3923 0.5977 7.15625e-015 6.36111e-015 -4.77083e-015 -0.5649 -2.3158 0.4082 8.74653e-015 9.54166e-015 -4.77083e-015 0.9159 -9.2044 0.2193 7.15625e-015 6.36111e-015 4.77083e-015 0.0117 -4.1944 -0.0248 -0.0128152 0.00232357 8.77327e-005 0.0071 -2.3249 -0.0142 8.74653e-015 -3.18055e-015 -0 0.6113 -8.7231 -2.0637 7.15625e-015 6.36111e-015 4.77083e-015 -0.1927 -3.8059 -0.2383 -0.0160513 0.00299067 0.000856869 -0.1091 -2.1688 -0.1362 -1.35174e-014 -6.36111e-015 -7.95139e-015 -0.6151 -8.0947 -3.5641 7.15625e-015 6.36111e-015 4.77083e-015 -0.4882 -2.341 -0.6462 -0.0126041 0.00312334 0.00283095 -0.3575 -1.7167 -0.4742 3.18055e-015 6.36111e-015 9.54166e-015 -1.42 -1.8761 1.4223 7.15625e-015 6.36111e-015 4.77083e-015 -1.1471 -3.4929 2.6334 7.15625e-015 6.36111e-015 -4.77083e-015 -0.823 -2.3 1.6571 8.74653e-015 9.54166e-015 -4.77083e-015 -2.2603 21.606 7.4023 19.9589 -9.60275 31.5131 -13.5187 -1.1334 -5.0155 -31.6875 -8.94282 5.65851 0.0994 -28.0499 -0.2431 27.4447 -15.8591 -38.9848 -0.0679 -23.3996 -0.1402 41.7199 17.2642 19.7897 -0.7932 -9.0691 2.5189 -9.54166e-015 -4.77083e-015 -3.18055e-015 0.8272 -3.3923 0.5977 -1.27222e-014 -6.36111e-015 3.18055e-015 0.565 -2.3158 0.4082 -1.27222e-014 -1.59028e-015 3.18055e-015 -0.916 -9.2044 0.2193 -9.54166e-015 -4.77083e-015 -3.18055e-015 -0.0117 -4.1944 -0.0248 0.012944 0.00231758 -9.19593e-005 -0.0071 -2.3249 -0.0142 -1.08962e-007 -1.14456e-005 2.95262e-006 -0.6113 -8.7231 -2.0637 -9.54166e-015 -4.77083e-015 -3.18055e-015 0.1927 -3.8059 -0.2383 0.0163516 0.00303661 -0.000874471 0.1091 -2.1688 -0.1362 3.18055e-015 0 -3.18055e-015 0.6151 -8.0947 -3.564 -9.54166e-015 -4.77083e-015 -3.18055e-015 0.4882 -2.341 -0.6462 0.0146187 0.00369306 -0.00326454 0.3574 -1.7166 -0.4742 3.18055e-015 7.95139e-015 -0 1.4199 -1.8761 1.4221 -9.54166e-015 -4.77083e-015 -3.18055e-015 1.1472 -3.4929 2.6336 -1.27222e-014 -6.36111e-015 3.18055e-015 0.8229 -2.3 1.6571 -1.27222e-014 -1.59028e-015 3.18055e-015 -9.412 3.9771 -0.7758 -9.67936 -25.4594 -11.3698 -0.7531 -40.938 1.33227e-015 -173.293 57.5085 171.346 -1.77636e-015 -40.1986 7.10543e-015 -6.80278 2.10124 -2.7552 1.77636e-015 -4.4182 9.239 2.09129e-007 3.40946e-008 -4.17438e-008 9.4119 3.9773 -0.7758 10.7254 -34.5174 14.6456 0.7532 -40.9383 8.88178e-016 173.914 41.0256 -170.551 -1.77636e-015 -40.1986 0 7.17423 -0.176832 3.82799 0 -4.4182 9.239 4.41391e-032 -1.59028e-015 1.59028e-015 
-0.00394962 2.19368 6.66892 -180 -71.6849 -180 0 8.7983 -4.7612 -0.258657 6.34802 -0.392047 6.93889e-018 8.0291 0.4195 -0.477732 12.6977 -0.762139 2.77556e-017 9.9351 -2.2114 -0.477733 12.6977 -0.762141 -1.11022e-016 22.3885 -0.4656 0.976452 0.447344 -0.111567 -0.0001 12.643 3.4389 -3.83677e-008 21.3462 2.49716e-007 2.2603 21.606 7.4023 0.685826 -13.6299 -24.4342 13.5163 -1.1332 -5.0146 90.8312 -34.8774 32.4399 -0.0995 -28.05 -0.2431 -36.8183 -48.7648 17.4531 0.0679 -23.3996 -0.1402 -11.0716 -28.4952 12.5802 0.7932 -9.069 2.5189 -7.15625e-015 -6.36111e-015 -1.59028e-015 -0.8272 -3.3923 0.5977 -7.95139e-016 -9.54166e-015 -3.18055e-015 -0.5649 -2.3158 0.4082 -9.54166e-015 -6.36111e-015 -0 0.9159 -9.2044 0.2193 -7.15625e-015 -6.36111e-015 -1.59028e-015 0.0117 -4.1944 -0.0248 -0.0128007 0.00231679 8.71124e-005 0.0071 -2.3249 -0.0142 -1.76556e-031 -3.18055e-015 -3.18055e-015 0.6113 -8.7231 -2.0637 -7.15625e-015 -6.36111e-015 -1.59028e-015 -0.1927 -3.8059 -0.2383 -0.0160703 0.00299562 0.000860114 -0.1091 -2.1688 -0.1362 5.56597e-015 0 -3.18055e-015 -0.6151 -8.0947 -3.5641 -7.15625e-015 -6.36111e-015 -1.59028e-015 -0.4882 -2.341 -0.6462 -0.0126209 0.00312729 0.00283875 -0.3575 -1.7167 -0.4742 4.81964e-007 -3.7013e-007 6.54749e-007 -1.42 -1.8761 1.4223 -7.15625e-015 -6.36111e-015 -1.59028e-015 -1.1471 -3.4929 2.6334 -7.95139e-016 -9.54166e-015 -3.18055e-015 -0.823 -2.3 1.6571 -9.54166e-015 -6.36111e-015 -0 -2.2603 21.606 7.4023 19.523 -9.2435 30.9905 -13.5187 -1.1334 -5.0155 -32.5493 -8.79507 5.32552 0.0994 -28.0499 -0.2431 26.9628 -15.5681 -38.2966 -0.0679 -23.3996 -0.1402 41.1919 16.0942 19.5553 -0.7932 -9.0691 2.5189 3.05557e-006 -4.50646e-006 2.24583e-006 0.8272 -3.3923 0.5977 3.00067e-006 4.24106e-006 5.24191e-006 0.565 -2.3158 0.4082 -4.5883e-006 9.37121e-008 -8.94622e-006 -0.916 -9.2044 0.2193 3.05557e-006 -4.50646e-006 2.24583e-006 -0.0117 -4.1944 -0.0248 0.0129682 0.00232681 -8.83218e-005 -0.0071 -2.3249 -0.0142 4.49527e-006 -4.55985e-006 2.28558e-006 -0.6113 -8.7231 -2.0637 3.05557e-006 -4.50646e-006 2.24583e-006 0.1927 -3.8059 -0.2383 0.0163669 0.00303914 -0.000870842 0.1091 -2.1688 -0.1362 0 4.77083e-015 -0 0.6151 -8.0947 -3.564 3.05557e-006 -4.50646e-006 2.24583e-006 0.4882 -2.341 -0.6462 0.0145497 0.00367459 -0.00326479 0.3574 -1.7166 -0.4742 -1.52285e-006 4.57608e-006 4.45441e-006 1.4199 -1.8761 1.4221 3.05557e-006 -4.50646e-006 2.24583e-006 1.1472 -3.4929 2.6336 3.00067e-006 4.24106e-006 5.24191e-006 0.8229 -2.3 1.6571 -4.5883e-006 9.37121e-008 -8.94622e-006 -9.412 3.9771 -0.7758 -9.61601 -25.0684 -11.2434 -0.7531 -40.938 6.21725e-015 -173.022 59.6234 171.249 -3.55271e-015 -40.1986 -7.10543e-015 -6.96118 2.07194 -2.52987 -8.88179e-016 -4.4182 9.239 1.67299e-007 -1.66677e-006 8.26637e-007 9.4119 3.9773 -0.7758 10.7384 -34.0679 14.3872 0.7532 -40.9383 1.77636e-015 173.72 43.4371 -170.709 0 -40.1986 7.10543e-015 7.40869 -0.06062 3.50995 0 -4.4182 9.239 -0 -2.18035e-011 -0 
